<svg width="293" height="293" viewBox="0 0 293 293" fill="none" xmlns="http://www.w3.org/2000/svg">
<path d="M48.493 113.024H39.9484C35.416 113.024 31.0693 114.945 27.8645 118.366C24.6596 121.786 22.8591 126.425 22.8591 131.262C22.8591 136.099 24.6596 140.738 27.8645 144.158C31.0693 147.578 35.416 149.5 39.9484 149.5H61.3983H257.764M91.5864 239.476H78.7695C74.2372 239.476 69.8905 237.554 66.6857 234.134C63.4808 230.714 61.6803 226.075 61.6803 221.238C61.6803 216.401 63.4808 211.762 66.6857 208.341C69.8905 204.921 74.2372 202.999 78.7695 202.999H91.5864H270.141M115.547 53.5239H102.73C98.198 53.5239 93.8513 55.4454 90.6464 58.8658C87.4415 62.2861 85.6411 66.925 85.6411 71.7621C85.6411 76.5992 87.4415 81.2381 90.6464 84.6585C93.8513 88.0788 104.606 90.0003 109.139 90.0003M109.139 90.0003H115.547M109.139 90.0003H159.822H210.505" stroke="#F4B30B" stroke-width="15.1667" stroke-linecap="round" stroke-linejoin="round"/>
</svg>
