<svg width="141" height="84" viewBox="0 0 141 84" fill="none" xmlns="http://www.w3.org/2000/svg">
<path d="M136.125 37.4301H131.75V20.8051C131.75 18.6004 130.828 16.4861 129.187 14.9272C127.546 13.3683 125.321 12.4926 123 12.4926H114.25V8.3363C114.25 6.13169 113.328 4.01737 111.687 2.45848C110.046 0.899582 107.821 0.0238037 105.5 0.0238037H92.375C90.0544 0.0238037 87.8288 0.899582 86.1878 2.45848C84.5469 4.01737 83.625 6.13169 83.625 8.3363V37.4301H57.375V8.3363C57.375 6.13169 56.4531 4.01737 54.8122 2.45848C53.1712 0.899582 50.9456 0.0238037 48.625 0.0238037H35.5C33.1794 0.0238037 30.9538 0.899582 29.3128 2.45848C27.6719 4.01737 26.75 6.13169 26.75 8.3363V12.4926H18C15.6794 12.4926 13.4538 13.3683 11.8128 14.9272C10.1719 16.4861 9.25 18.6004 9.25 20.8051V37.4301H4.875C3.71468 37.4301 2.60188 37.8679 1.78141 38.6474C0.960936 39.4268 0.5 40.484 0.5 41.5863C0.5 42.6886 0.960936 43.7458 1.78141 44.5252C2.60188 45.3047 3.71468 45.7426 4.875 45.7426H9.25V62.3676C9.25 64.5722 10.1719 66.6865 11.8128 68.2454C13.4538 69.8043 15.6794 70.6801 18 70.6801H26.75V74.8363C26.75 77.0409 27.6719 79.1552 29.3128 80.7141C30.9538 82.273 33.1794 83.1488 35.5 83.1488H48.625C50.9456 83.1488 53.1712 82.273 54.8122 80.7141C56.4531 79.1552 57.375 77.0409 57.375 74.8363V45.7426H83.625V74.8363C83.625 77.0409 84.5469 79.1552 86.1878 80.7141C87.8288 82.273 90.0544 83.1488 92.375 83.1488H105.5C107.821 83.1488 110.046 82.273 111.687 80.7141C113.328 79.1552 114.25 77.0409 114.25 74.8363V70.6801H123C125.321 70.6801 127.546 69.8043 129.187 68.2454C130.828 66.6865 131.75 64.5722 131.75 62.3676V45.7426H136.125C137.285 45.7426 138.398 45.3047 139.219 44.5252C140.039 43.7458 140.5 42.6886 140.5 41.5863C140.5 40.484 140.039 39.4268 139.219 38.6474C138.398 37.8679 137.285 37.4301 136.125 37.4301ZM18 62.3676V20.8051H26.75V62.3676H18ZM48.625 74.8363H35.5V8.3363H48.625V74.8363ZM105.5 74.8363H92.375V8.3363H105.5V66.4303C105.5 66.4615 105.5 66.4926 105.5 66.5238C105.5 66.555 105.5 66.5861 105.5 66.6173V74.8363ZM123 62.3676H114.25V20.8051H123V62.3676Z" fill="#202227"/>
</svg>
