<svg width="100" height="100" viewBox="0 0 100 100" fill="none" xmlns="http://www.w3.org/2000/svg">
<circle cx="50" cy="50" r="47" stroke="#F5F5F6" stroke-width="6"/>
<path d="M73.5476 62.9146C73.342 63.1204 73.0979 63.2836 72.8292 63.395C72.5605 63.5064 72.2725 63.5637 71.9817 63.5637C71.6908 63.5637 71.4028 63.5064 71.1341 63.395C70.8654 63.2836 70.6213 63.1204 70.4157 62.9146L49.8481 42.3442L29.2805 62.9146C28.8652 63.3299 28.3019 63.5632 27.7146 63.5632C27.1272 63.5632 26.564 63.3299 26.1486 62.9146C25.7333 62.4993 25.5 61.936 25.5 61.3486C25.5 60.7613 25.7333 60.198 26.1486 59.7827L48.2822 37.6491C48.4877 37.4434 48.7318 37.2801 49.0005 37.1687C49.2692 37.0573 49.5572 37 49.8481 37C50.139 37 50.427 37.0573 50.6957 37.1687C50.9644 37.2801 51.2085 37.4434 51.4141 37.6491L73.5476 59.7827C73.7534 59.9882 73.9166 60.2324 74.028 60.501C74.1394 60.7697 74.1967 61.0578 74.1967 61.3486C74.1967 61.6395 74.1394 61.9275 74.028 62.1962C73.9166 62.4649 73.7534 62.709 73.5476 62.9146Z" fill="#F5F5F6"/>
</svg>
