<svg width="100" height="101" viewBox="0 0 100 101" fill="none" xmlns="http://www.w3.org/2000/svg">
<circle cx="50" cy="50.0239" r="47" stroke="#F4B30B" stroke-width="6"/>
<path d="M73.5476 62.9385C73.342 63.1443 73.0979 63.3075 72.8292 63.4189C72.5605 63.5303 72.2725 63.5876 71.9817 63.5876C71.6908 63.5876 71.4028 63.5303 71.1341 63.4189C70.8654 63.3075 70.6213 63.1443 70.4157 62.9385L49.8481 42.3681L29.2805 62.9385C28.8652 63.3538 28.3019 63.5871 27.7146 63.5871C27.1272 63.5871 26.564 63.3538 26.1486 62.9385C25.7333 62.5232 25.5 61.9599 25.5 61.3726C25.5 60.7852 25.7333 60.2219 26.1486 59.8066L48.2822 37.6731C48.4877 37.4673 48.7318 37.304 49.0005 37.1926C49.2692 37.0813 49.5572 37.0239 49.8481 37.0239C50.139 37.0239 50.427 37.0813 50.6957 37.1926C50.9644 37.304 51.2085 37.4673 51.4141 37.6731L73.5476 59.8066C73.7534 60.0122 73.9166 60.2563 74.028 60.525C74.1394 60.7937 74.1967 61.0817 74.1967 61.3726C74.1967 61.6634 74.1394 61.9514 74.028 62.2201C73.9166 62.4888 73.7534 62.7329 73.5476 62.9385Z" fill="#F4B30B"/>
</svg>
