<svg width="97" height="96" viewBox="0 0 97 96" fill="none" xmlns="http://www.w3.org/2000/svg">
<path d="M92.6277 21.41H79.9027L91.5899 9.72724C91.9195 9.39756 92.181 9.00619 92.3595 8.57545C92.5379 8.14471 92.6297 7.68305 92.6297 7.21682C92.6297 6.75059 92.5379 6.28893 92.3595 5.85819C92.181 5.42746 91.9195 5.03608 91.5899 4.7064C91.2602 4.37673 90.8688 4.11522 90.4381 3.9368C90.0073 3.75839 89.5457 3.66656 89.0794 3.66656C88.6132 3.66656 88.1516 3.75839 87.7208 3.9368C87.2901 4.11522 86.8987 4.37673 86.569 4.7064L74.8863 16.3936V3.66853C74.8863 2.72746 74.5125 1.82494 73.847 1.15951C73.1816 0.494076 72.2791 0.120239 71.338 0.120239C70.3969 0.120239 69.4944 0.494076 68.829 1.15951C68.1635 1.82494 67.7897 2.72746 67.7897 3.66853V18.1145C62.383 14.9933 56.0981 13.7415 49.9081 14.5529C43.7181 15.3643 37.9682 18.1938 33.5487 22.6031C15.7629 40.074 2.39028 81.6289 1.08628 85.7848C0.471462 87.1046 0.277435 88.5815 0.530513 90.0152C0.783591 91.449 1.47153 92.7702 2.50102 93.7997C3.5305 94.8292 4.85172 95.5171 6.28548 95.7702C7.71923 96.0233 9.19613 95.8292 10.5159 95.2144C14.6718 93.9104 56.2799 80.5201 73.7065 62.7431C78.1127 58.3223 80.939 52.5725 81.748 46.3835C82.557 40.1945 81.3036 33.9114 78.1818 28.5066H92.6277C93.5688 28.5066 94.4713 28.1327 95.1368 27.4673C95.8022 26.8019 96.176 25.8993 96.176 24.9583C96.176 24.0172 95.8022 23.1147 95.1368 22.4493C94.4713 21.7838 93.5688 21.41 92.6277 21.41ZM68.6236 57.78C64.6583 61.825 59.1984 65.6749 53.1663 69.1921L41.9094 57.9308C41.5797 57.6011 41.1883 57.3396 40.7576 57.1612C40.3268 56.9827 39.8652 56.8909 39.3989 56.8909C38.9327 56.8909 38.4711 56.9827 38.0403 57.1612C37.6096 57.3396 37.2182 57.6011 36.8885 57.9308C36.5589 58.2604 36.2973 58.6518 36.1189 59.0825C35.9405 59.5133 35.8487 59.9749 35.8487 60.4412C35.8487 60.9074 35.9405 61.3691 36.1189 61.7998C36.2973 62.2305 36.5589 62.6219 36.8885 62.9516L46.6862 72.7493C28.5589 82.1478 8.40019 88.4594 8.09859 88.5525C7.88017 88.6234 7.66923 88.7155 7.46877 88.8275C7.57593 88.6279 7.66356 88.4185 7.73045 88.2021C7.85908 87.7896 20.1495 48.4701 36.1168 30.2452L51.095 45.2234C51.7608 45.8892 52.6638 46.2633 53.6054 46.2633C54.547 46.2633 55.45 45.8892 56.1158 45.2234C56.7816 44.5576 57.1557 43.6546 57.1557 42.713C57.1557 41.7714 56.7816 40.8684 56.1158 40.2026L41.2574 25.3486C45.6106 22.2512 50.9693 20.9039 56.2699 21.574C61.5704 22.2441 66.4252 24.8826 69.8707 28.9658C73.3163 33.0491 75.1006 38.2785 74.8695 43.6163C74.6385 48.954 72.409 54.0097 68.6236 57.78Z" fill="#202227"/>
</svg>
