<svg width="125" height="108" viewBox="0 0 125 108" fill="none" xmlns="http://www.w3.org/2000/svg">
<path d="M43.6885 103.056C43.6885 104.189 43.2385 105.275 42.4377 106.076C41.6368 106.877 40.5506 107.327 39.418 107.327H13.7949C12.6623 107.327 11.5761 106.877 10.7752 106.076C9.97434 105.275 9.52441 104.189 9.52441 103.056C9.52441 101.923 9.97434 100.837 10.7752 100.036C11.5761 99.2354 12.6623 98.7855 13.7949 98.7855H39.418C40.5506 98.7855 41.6368 99.2354 42.4377 100.036C43.2385 100.837 43.6885 101.923 43.6885 103.056ZM26.6064 85.974C26.6064 84.8414 26.1565 83.7551 25.3556 82.9543C24.5548 82.1534 23.4685 81.7035 22.3359 81.7035H5.25391C4.1213 81.7035 3.03508 82.1534 2.2342 82.9543C1.43333 83.7551 0.983398 84.8414 0.983398 85.974C0.983398 87.1066 1.43333 88.1928 2.2342 88.9937C3.03508 89.7946 4.1213 90.2445 5.25391 90.2445H22.3359C23.4685 90.2445 24.5548 89.7946 25.3556 88.9937C26.1565 88.1928 26.6064 87.1066 26.6064 85.974ZM124.828 94.515V98.7855C124.828 101.051 123.928 103.223 122.327 104.825C120.725 106.427 118.552 107.327 116.287 107.327H66.8079C64.5561 107.331 62.3945 106.442 60.7972 104.855L3.53503 49.365L3.48698 49.317C1.88644 47.7154 0.987357 45.5438 0.987357 43.2796C0.987357 41.0153 1.88644 38.8437 3.48698 37.2421L37.651 3.01401L37.7311 2.93928C39.3394 1.38996 41.4931 0.536389 43.7261 0.563365C45.959 0.59034 48.0915 1.49569 49.6619 3.08341L54.0445 7.50338C55.5437 9.00476 56.4305 11.0104 56.532 13.1298C57.1352 25.3434 65.6069 33.5802 78.5839 34.6264C80.7099 34.8091 82.6906 35.7811 84.136 37.3509C85.5813 38.9208 86.3867 40.9748 86.3936 43.1087V56.0804C86.3936 60.6108 88.1933 64.9557 91.3968 68.1592C94.6003 71.3627 98.9451 73.1624 103.476 73.1624C109.139 73.1624 114.57 75.4121 118.574 79.4165C122.578 83.4208 124.828 88.8519 124.828 94.515ZM116.287 94.515C116.287 91.1172 114.937 87.8585 112.535 85.4559C110.132 83.0532 106.873 81.7035 103.476 81.7035C98.4434 81.7094 93.5225 80.2233 89.3349 77.433H73.582C72.4494 77.433 71.3632 76.983 70.5623 76.1822C69.7614 75.3813 69.3115 74.2951 69.3115 73.1624C69.3115 72.0298 69.7614 70.9436 70.5623 70.1427C71.3632 69.3419 72.4494 68.8919 73.582 68.8919H81.301C79.7684 66.2531 78.7232 63.36 78.2155 60.3509H69.3115C68.1789 60.3509 67.0927 59.901 66.2918 59.1001C65.4909 58.2992 65.041 57.213 65.041 56.0804C65.041 54.9478 65.4909 53.8616 66.2918 53.0607C67.0927 52.2598 68.1789 51.8099 69.3115 51.8099H77.8525V43.1087C69.6158 42.4361 62.436 39.372 57.0979 34.2474C51.5515 28.9093 48.4074 21.7509 48.023 13.5195L43.6191 9.10482L9.52441 43.2689L66.7599 98.7321L66.8079 98.7748H116.287V94.515Z" fill="#202227"/>
</svg>
