<svg width="745" height="489" viewBox="0 0 745 489" fill="none" xmlns="http://www.w3.org/2000/svg">
<path d="M362.228 257.422L634.626 259.799L633.948 337.569C633.672 369.115 628.104 394.169 617.243 412.729C606.382 431.289 590.253 440.476 568.856 440.289C553.768 440.158 540.648 434.694 529.494 423.897C518.612 413.377 510.374 398.628 504.778 379.65C499.897 404.572 491.229 423.289 478.775 435.8C466.592 448.587 453.231 454.918 438.692 454.791C424.154 454.664 411.704 450.852 401.345 443.354C391.26 435.859 383.524 426.327 378.138 414.757C366.821 391.34 361.268 367.424 361.481 343.01L362.228 257.422ZM509.6 298.625L509.342 328.251C509.124 353.214 514.455 371.093 525.334 381.887C536.485 392.958 550.428 398.566 567.161 398.712C578.408 398.81 588.592 395.058 597.711 387.456C607.103 380.131 614.198 368.671 618.998 353.075C619.161 334.422 616.573 316.567 611.235 299.512L509.6 298.625ZM497.667 298.52L380.396 297.497C377.577 306.251 376.086 319.818 375.926 338.197C375.766 356.577 380.698 372.943 390.723 387.296C400.749 401.649 414.814 408.905 432.919 409.063C451.024 409.221 466.18 401.534 478.386 386.004C490.867 370.475 497.203 351.738 497.395 329.793L497.667 298.52Z" fill="#F5F5F6"/>
<path d="M293.663 439.774C267.328 439.544 247.388 429.631 233.842 410.035C220.568 390.715 214.076 364.459 214.366 331.266L214.674 295.879L93.2885 294.82L93.6368 254.907L366.035 257.284L365.263 345.752C365.021 373.458 358.514 396.034 345.743 413.48C332.968 431.201 315.608 439.965 293.663 439.774ZM226.607 295.984L226.288 332.605C226.175 345.498 228.548 356.492 233.407 365.588C238.263 374.958 244.514 381.734 252.159 385.916C265.81 393.442 279.082 397.261 291.975 397.374C298.285 397.429 305.843 395.849 314.65 392.634C332.812 386.208 344.726 372.732 350.392 352.206C350.565 332.455 348.393 314.055 343.878 297.007L226.607 295.984Z" fill="#F5F5F6"/>
<path d="M402.012 0L394.117 2.86962C396.996 10.7715 398.343 18.7618 395.185 26.7382C397.275 28.952 399.318 31.1379 401.362 33.2773C407.166 21.9244 405.634 9.95297 402.012 0ZM390.031 33.4634C386.873 34.6726 384.077 36.2074 381.546 37.9748C394.164 51.8345 404.845 66.6245 411.16 80.8098C417.058 94.1579 419.24 107.46 414.504 118.529L516.576 192.432C529.346 191.781 537.612 188.665 543.278 184.293C549.222 179.735 552.612 173.642 555.073 166.433C553.726 164.945 552.24 163.503 550.615 162.061C538.68 164.154 528.232 161.782 519.548 156.294C510.492 150.62 503.387 141.83 497.35 131.644C485.973 112.436 478.31 87.9257 470.555 67.6942C449.89 69.7871 434.751 66.9035 422.863 61.0899C408.653 54.1135 399.318 43.3699 390.031 33.4634ZM375.207 43.4629C373.085 45.7418 371.191 48.2533 369.477 50.9508C364.573 58.7179 361.211 68.1593 358.336 77.8797L407.492 113.459C410.139 105.506 408.56 95.5532 403.498 84.2049C397.693 71.2289 387.43 56.9505 375.207 43.4629ZM486.158 65.3222C483.744 65.7873 481.422 66.2059 479.1 66.5779C480.818 71.0893 482.536 75.7403 484.254 80.4377L496.328 86.5304C493.124 79.0424 489.966 71.88 486.158 65.3222ZM353.674 84.8561C352.411 86.2048 351.593 87.6001 351.171 89.0419C350.6 90.9023 350.674 92.9487 351.64 95.4602L462.568 167.27C472.691 173.782 481.793 179.177 490.059 183.595L353.674 84.8561ZM488.48 91.972C491.685 100.483 495.075 108.901 498.836 116.668L514.254 123.505C509.053 115.087 505.059 106.715 501.483 98.5298L488.48 91.972ZM505.291 128.621C510.724 137.551 516.901 144.76 524.006 149.225C529.114 152.434 534.64 154.294 541.095 154.48C534.222 148.713 528.51 142.76 523.634 136.714L505.291 128.621ZM560.924 174.386C558.185 180.572 554.33 186.386 548.386 190.944C543.092 194.99 536.312 198.013 527.628 199.594C535.755 201.873 542.117 202.617 546.946 202.431C553.866 202.152 557.813 200.245 560.228 198.339C562.643 196.432 563.571 194.525 563.989 193.595C565.615 189.967 565.475 184.339 562.828 178.107C562.318 176.898 561.667 175.642 560.924 174.386Z" fill="#F5F5F6"/>
<path d="M164.085 122.257H152.28C146.019 122.257 140.013 123.946 135.586 126.954C131.158 129.961 128.671 134.04 128.671 138.292C128.671 142.545 131.158 146.624 135.586 149.631C140.013 152.638 146.019 154.328 152.28 154.328H164.085H341.153M223.229 234.21H205.522C199.261 234.21 193.256 232.52 188.828 229.513C184.401 226.506 181.913 222.427 181.913 218.174C181.913 213.921 184.401 209.843 188.828 206.836C193.256 203.828 199.261 202.139 205.522 202.139H223.229H469.905M230.144 71.554H212.437C206.176 71.554 200.171 73.2434 195.743 76.2506C191.316 79.2578 188.828 83.3365 188.828 87.5893C188.828 91.8422 191.316 95.9209 195.743 98.9281C200.171 101.935 206.176 103.625 212.437 103.625M212.437 103.625H230.144M212.437 103.625H306.874" stroke="#F5F5F6" stroke-width="11.5706" stroke-linecap="round" stroke-linejoin="round"/>
</svg>
