<svg width="131" height="72" viewBox="0 0 131 72" fill="none" xmlns="http://www.w3.org/2000/svg">
<path d="M82.773 0.284668L80.4437 1.13008C81.2932 3.45805 81.6905 5.81205 80.7588 8.16194C81.3754 8.81415 81.9783 9.45815 82.5812 10.0884C84.2939 6.74378 83.8417 3.21689 82.773 0.284668ZM79.2379 10.1432C78.3061 10.4995 77.4813 10.9517 76.7345 11.4723C80.4574 15.5555 83.6088 19.9128 85.4723 24.0919C87.2124 28.0243 87.8564 31.9431 86.4588 35.2042L116.576 56.9766C120.344 56.7848 122.783 55.8668 124.454 54.5788C126.208 53.236 127.209 51.441 127.935 49.3172C127.537 48.8788 127.099 48.454 126.619 48.0292C123.098 48.6458 120.015 47.947 117.453 46.3302C114.781 44.6585 112.684 42.0689 110.903 39.0681C107.546 33.4092 105.285 26.1883 102.997 20.2279C96.8997 20.8445 92.4329 19.995 88.9252 18.2822C84.7324 16.2269 81.9783 13.0618 79.2379 10.1432ZM74.8642 13.0892C74.238 13.7606 73.679 14.5005 73.1734 15.2952C71.7264 17.5834 70.7344 20.3649 69.8863 23.2286L84.3898 33.7107C85.1708 31.3676 84.705 28.4354 83.2115 25.0921C81.4987 21.2693 78.4706 17.0628 74.8642 13.0892ZM107.601 19.5291C106.888 19.6661 106.203 19.7894 105.518 19.8991C106.025 21.2282 106.532 22.5984 107.039 23.9823L110.602 25.7772C109.656 23.5712 108.725 21.4611 107.601 19.5291ZM68.5106 25.2839C68.1379 25.6813 67.8967 26.0924 67.7721 26.5171C67.6035 27.0652 67.6254 27.6681 67.9104 28.408L100.64 49.5639C103.627 51.4821 106.313 53.0716 108.752 54.3733L68.5106 25.2839ZM108.286 27.3803C109.232 29.8878 110.232 32.3679 111.342 34.6561L115.891 36.6703C114.356 34.1902 113.178 31.7239 112.123 29.3123L108.286 27.3803ZM113.246 38.1775C114.849 40.8083 116.672 42.9321 118.768 44.2475C120.275 45.1929 121.906 45.741 123.81 45.7958C121.783 44.0968 120.097 42.3429 118.659 40.5617L113.246 38.1775ZM129.661 51.6603C128.853 53.4826 127.716 55.1954 125.962 56.5382C124.4 57.7302 122.399 58.6209 119.837 59.0867C122.235 59.7581 124.112 59.9774 125.537 59.9226C127.578 59.8403 128.743 59.2786 129.456 58.7168C130.168 58.155 130.442 57.5932 130.566 57.3192C131.045 56.2504 131.004 54.5925 130.223 52.7564C130.072 52.4002 129.88 52.0302 129.661 51.6603Z" fill="#F5F5F6"/>
<path d="M12.571 36.3025H9.08802C7.24052 36.3025 5.46869 36.8002 4.16231 37.6862C2.85593 38.5721 2.12201 39.7737 2.12201 41.0267C2.12201 42.2796 2.85593 43.4812 4.16231 44.3671C5.46869 45.2531 7.24052 45.7508 9.08802 45.7508H12.571H64.8161M30.022 69.2847H24.7975C22.95 69.2847 21.1782 68.7869 19.8718 67.901C18.5655 67.015 17.8315 65.8134 17.8315 64.5605C17.8315 63.3076 18.5655 62.106 19.8718 61.22C21.1782 60.3341 22.95 59.8364 24.7975 59.8364H30.022H102.805M32.0624 21.365H26.8378C24.9903 21.365 23.2185 21.8627 21.9121 22.7487C20.6058 23.6346 19.8718 24.8362 19.8718 26.0891C19.8718 27.3421 20.6058 28.5437 21.9121 29.4296C23.2185 30.3156 24.9903 30.8133 26.8378 30.8133M26.8378 30.8133H32.0624M26.8378 30.8133H54.7019" stroke="#F5F5F6" stroke-width="3.92917" stroke-linecap="round" stroke-linejoin="round"/>
</svg>
