<svg width="976" height="844" viewBox="0 0 976 844" fill="none" xmlns="http://www.w3.org/2000/svg">
<path d="M475.213 418.579L832.271 421.695L831.381 523.635C831.02 564.986 823.721 597.825 809.484 622.154C795.248 646.483 774.106 658.525 746.059 658.28C726.282 658.107 709.084 650.945 694.464 636.793C680.2 623.004 669.401 603.671 662.066 578.794C655.668 611.462 644.306 635.996 627.981 652.395C612.012 669.157 594.499 677.455 575.442 677.288C556.384 677.122 540.066 672.125 526.487 662.297C513.267 652.473 503.128 639.978 496.068 624.813C481.233 594.117 473.955 562.769 474.234 530.766L475.213 418.579ZM668.387 472.587L668.048 511.421C667.763 544.142 674.75 567.578 689.011 581.726C703.628 596.238 721.904 603.59 743.838 603.781C758.58 603.91 771.928 598.992 783.882 589.027C796.192 579.425 805.493 564.403 811.785 543.961C811.998 519.51 808.607 496.106 801.61 473.75L668.387 472.587ZM652.746 472.451L499.028 471.109C495.332 482.584 493.378 500.367 493.168 524.459C492.958 548.55 499.423 570.003 512.564 588.817C525.705 607.631 544.142 617.142 567.874 617.349C591.606 617.556 611.472 607.48 627.472 587.123C643.832 566.768 652.137 542.208 652.388 513.442L652.746 472.451Z" fill="#F4B30B"/>
<path d="M385.339 657.604C350.82 657.303 324.682 644.309 306.926 618.623C289.527 593.299 281.017 558.882 281.396 515.374L281.801 468.989L122.69 467.6L123.146 415.282L480.204 418.398L479.192 534.361C478.875 570.678 470.346 600.271 453.604 623.139C436.86 646.367 414.105 657.855 385.339 657.604ZM297.443 469.125L297.024 517.128C296.876 534.028 299.987 548.44 306.356 560.362C312.721 572.644 320.915 581.526 330.936 587.007C348.83 596.873 366.227 601.879 383.127 602.027C391.397 602.099 401.304 600.028 412.848 595.813C436.655 587.391 452.272 569.727 459.699 542.821C459.925 516.932 457.079 492.814 451.161 470.467L297.443 469.125Z" fill="#F4B30B"/>
<path d="M526.641 81.1461L516.293 84.9076C520.067 95.2654 521.832 105.739 517.693 116.194C520.432 119.096 523.11 121.961 525.788 124.766C533.397 109.885 531.389 94.1924 526.641 81.1461ZM510.936 125.01C506.797 126.595 503.132 128.607 499.815 130.923C516.353 149.09 530.354 168.477 538.632 187.071C546.363 204.568 549.224 222.003 543.015 236.513L676.81 333.384C693.55 332.531 704.385 328.446 711.811 322.716C719.602 316.741 724.046 308.755 727.272 299.305C725.507 297.355 723.559 295.465 721.429 293.575C705.785 296.318 692.089 293.209 680.706 286.015C668.836 278.578 659.523 267.056 651.609 253.704C636.696 228.526 626.652 196.398 616.487 169.879C589.399 172.622 569.555 168.843 553.972 161.222C535.345 152.078 523.11 137.995 510.936 125.01ZM491.506 138.117C488.724 141.104 486.24 144.396 483.994 147.932C477.566 158.113 473.159 170.489 469.391 183.23L533.823 229.868C537.293 219.443 535.224 206.396 528.589 191.521C520.98 174.512 507.527 155.796 491.506 138.117ZM636.939 166.77C633.774 167.38 630.73 167.928 627.687 168.416C629.939 174.329 632.191 180.426 634.444 186.583L650.27 194.569C646.07 184.754 641.931 175.366 636.939 166.77ZM463.28 192.375C461.624 194.143 460.553 195.972 459.999 197.862C459.25 200.3 459.348 202.982 460.614 206.275L606.017 300.403C619.287 308.938 631.217 316.01 642.053 321.801L463.28 192.375ZM639.983 201.702C644.183 212.859 648.627 223.893 653.557 234.074L673.766 243.036C666.949 232.001 661.714 221.028 657.027 210.298L639.983 201.702ZM662.018 249.742C669.14 261.447 677.236 270.896 686.549 276.749C693.245 280.955 700.489 283.394 708.95 283.638C699.941 276.078 692.454 268.275 686.062 260.35L662.018 249.742ZM734.942 309.73C731.351 317.838 726.298 325.459 718.507 331.433C711.567 336.737 702.68 340.7 691.297 342.773C701.95 345.76 710.289 346.735 716.62 346.492C725.69 346.126 730.864 343.626 734.029 341.127C737.194 338.627 738.412 336.128 738.96 334.908C741.09 330.153 740.907 322.777 737.438 314.607C736.768 313.022 735.916 311.376 734.942 309.73Z" fill="#F4B30B"/>
<path d="M214.768 241.399H199.294C191.087 241.399 183.215 243.614 177.412 247.556C171.608 251.498 168.348 256.844 168.348 262.419C168.348 267.993 171.608 273.339 177.412 277.281C183.215 281.223 191.087 283.438 199.294 283.438H214.768H446.867M292.294 388.146H269.084C260.876 388.146 253.005 385.932 247.201 381.99C241.398 378.048 238.137 372.702 238.137 367.127C238.137 361.552 241.398 356.206 247.201 352.264C253.005 348.323 260.876 346.108 269.084 346.108H292.294H615.635M301.358 174.938H278.148C269.94 174.938 262.069 177.153 256.266 181.095C250.462 185.036 247.201 190.383 247.201 195.957C247.201 201.532 250.462 206.878 256.266 210.82C262.069 214.762 269.94 216.976 278.148 216.976M278.148 216.976H301.358M278.148 216.976H401.934" stroke="#F4B30B" stroke-width="15.1667" stroke-linecap="round" stroke-linejoin="round"/>
<circle cx="498.127" cy="422" r="412" stroke="#F4B30B" stroke-width="20"/>
</svg>
